<mxfile host="app.diagrams.net" modified="2024-06-18T00:11:00.830Z" agent="Mozilla/5.0 (X11; Linux x86_64) AppleWebKit/537.36 (KHTML, like Gecko) Chrome/126.0.0.0 Safari/537.36" etag="Rx28o5JdsA-J_XmVL-qn" version="24.5.4" type="device" pages="5">
  <diagram name="ddr4" id="lBqemwW4G3ov8Y4Dyzth">
    <mxGraphModel dx="537" dy="547" grid="1" gridSize="10" guides="1" tooltips="1" connect="1" arrows="1" fold="1" page="1" pageScale="1" pageWidth="1100" pageHeight="850" math="0" shadow="0">
      <root>
        <mxCell id="0" />
        <mxCell id="1" parent="0" />
        <mxCell id="72LrfbyySqzoY_jBKCR_-1" value="DDR4 SDRAM" style="rounded=0;whiteSpace=wrap;html=1;fontFamily=Courier New;fillColor=#ffe6cc;strokeColor=#d79b00;" vertex="1" parent="1">
          <mxGeometry x="110" y="120" width="420" height="60" as="geometry" />
        </mxCell>
        <mxCell id="72LrfbyySqzoY_jBKCR_-2" value="64 pin io bus" style="rounded=0;whiteSpace=wrap;html=1;fontFamily=Courier New;fillColor=#d5e8d4;strokeColor=#82b366;" vertex="1" parent="1">
          <mxGeometry x="110" y="180" width="420" height="30" as="geometry" />
        </mxCell>
        <mxCell id="72LrfbyySqzoY_jBKCR_-3" value="" style="pointerEvents=1;shadow=0;dashed=0;html=1;strokeColor=#b85450;fillColor=#f8cecc;labelPosition=center;verticalLabelPosition=bottom;verticalAlign=top;align=center;outlineConnect=0;shape=mxgraph.veeam.cpu;" vertex="1" parent="1">
          <mxGeometry x="290" y="280" width="50" height="50" as="geometry" />
        </mxCell>
        <mxCell id="72LrfbyySqzoY_jBKCR_-4" value="" style="endArrow=classic;html=1;rounded=0;entryX=0.467;entryY=1.1;entryDx=0;entryDy=0;entryPerimeter=0;" edge="1" parent="1">
          <mxGeometry width="50" height="50" relative="1" as="geometry">
            <mxPoint x="300" y="280" as="sourcePoint" />
            <mxPoint x="300" y="210.00000000000006" as="targetPoint" />
          </mxGeometry>
        </mxCell>
        <mxCell id="72LrfbyySqzoY_jBKCR_-5" value="" style="endArrow=classic;html=1;rounded=0;" edge="1" parent="1">
          <mxGeometry width="50" height="50" relative="1" as="geometry">
            <mxPoint x="333" y="211" as="sourcePoint" />
            <mxPoint x="333" y="280" as="targetPoint" />
          </mxGeometry>
        </mxCell>
        <mxCell id="72LrfbyySqzoY_jBKCR_-6" value="Read from address X" style="text;html=1;align=center;verticalAlign=middle;whiteSpace=wrap;rounded=0;fontFamily=Architects Daughter;fontSource=https%3A%2F%2Ffonts.googleapis.com%2Fcss%3Ffamily%3DArchitects%2BDaughter;" vertex="1" parent="1">
          <mxGeometry x="150" y="230" width="140" height="30" as="geometry" />
        </mxCell>
        <mxCell id="72LrfbyySqzoY_jBKCR_-7" value="64 bytes response&lt;div&gt;(1 byte per pin)&lt;/div&gt;" style="text;html=1;align=center;verticalAlign=middle;whiteSpace=wrap;rounded=0;fontFamily=Architects Daughter;fontSource=https%3A%2F%2Ffonts.googleapis.com%2Fcss%3Ffamily%3DArchitects%2BDaughter;" vertex="1" parent="1">
          <mxGeometry x="340" y="230" width="140" height="30" as="geometry" />
        </mxCell>
      </root>
    </mxGraphModel>
  </diagram>
  <diagram name="ddr5" id="fLOugfd9Cuijchctfw0J">
    <mxGraphModel dx="649" dy="661" grid="1" gridSize="10" guides="1" tooltips="1" connect="1" arrows="1" fold="1" page="1" pageScale="1" pageWidth="1100" pageHeight="850" math="0" shadow="0">
      <root>
        <mxCell id="xb3okMgiT83-ZsKsdgay-0" />
        <mxCell id="xb3okMgiT83-ZsKsdgay-1" parent="xb3okMgiT83-ZsKsdgay-0" />
        <mxCell id="xb3okMgiT83-ZsKsdgay-2" value="DDR5 SDRAM" style="rounded=0;whiteSpace=wrap;html=1;fontFamily=Courier New;fillColor=#ffe6cc;strokeColor=#d79b00;" vertex="1" parent="xb3okMgiT83-ZsKsdgay-1">
          <mxGeometry x="110" y="110" width="420" height="60" as="geometry" />
        </mxCell>
        <mxCell id="xb3okMgiT83-ZsKsdgay-3" value="&lt;div&gt;&lt;span style=&quot;background-color: initial;&quot;&gt;Channel A&lt;/span&gt;&lt;br&gt;&lt;/div&gt;32 pin io bus" style="rounded=0;whiteSpace=wrap;html=1;fontFamily=Courier New;fillColor=#d5e8d4;strokeColor=#82b366;" vertex="1" parent="xb3okMgiT83-ZsKsdgay-1">
          <mxGeometry x="110" y="170" width="210" height="40" as="geometry" />
        </mxCell>
        <mxCell id="xb3okMgiT83-ZsKsdgay-4" value="" style="pointerEvents=1;shadow=0;dashed=0;html=1;strokeColor=#b85450;fillColor=#f8cecc;labelPosition=center;verticalLabelPosition=bottom;verticalAlign=top;align=center;outlineConnect=0;shape=mxgraph.veeam.cpu;" vertex="1" parent="xb3okMgiT83-ZsKsdgay-1">
          <mxGeometry x="290" y="280" width="50" height="50" as="geometry" />
        </mxCell>
        <mxCell id="xb3okMgiT83-ZsKsdgay-7" value="Read from&amp;nbsp;&lt;div&gt;address X&lt;/div&gt;" style="text;html=1;align=center;verticalAlign=middle;whiteSpace=wrap;rounded=0;fontFamily=Architects Daughter;fontSource=https%3A%2F%2Ffonts.googleapis.com%2Fcss%3Ffamily%3DArchitects%2BDaughter;" vertex="1" parent="xb3okMgiT83-ZsKsdgay-1">
          <mxGeometry x="110" y="230" width="80" height="30" as="geometry" />
        </mxCell>
        <mxCell id="fkU10QrsaT3xCuU7vBy9-0" value="&lt;div&gt;&lt;span style=&quot;background-color: initial;&quot;&gt;Channel B&lt;/span&gt;&lt;br&gt;&lt;/div&gt;32 pin io bus" style="rounded=0;whiteSpace=wrap;html=1;fontFamily=Courier New;fillColor=#d5e8d4;strokeColor=#82b366;" vertex="1" parent="xb3okMgiT83-ZsKsdgay-1">
          <mxGeometry x="320" y="170" width="210" height="40" as="geometry" />
        </mxCell>
        <mxCell id="IcgwBXksG3nrWfpEp9Pc-1" value="64 bytes&lt;div&gt;(2 bytes per pin)&lt;/div&gt;" style="text;html=1;align=center;verticalAlign=middle;whiteSpace=wrap;rounded=0;fontFamily=Architects Daughter;fontSource=https%3A%2F%2Ffonts.googleapis.com%2Fcss%3Ffamily%3DArchitects%2BDaughter;" vertex="1" parent="xb3okMgiT83-ZsKsdgay-1">
          <mxGeometry x="210" y="230" width="110" height="30" as="geometry" />
        </mxCell>
        <mxCell id="zEM9ajk-SXAkSVKI_JSx-0" value="" style="endArrow=classic;html=1;rounded=0;entryX=0.467;entryY=1.1;entryDx=0;entryDy=0;entryPerimeter=0;" edge="1" parent="xb3okMgiT83-ZsKsdgay-1">
          <mxGeometry width="50" height="50" relative="1" as="geometry">
            <mxPoint x="190" y="280" as="sourcePoint" />
            <mxPoint x="190" y="210.00000000000006" as="targetPoint" />
          </mxGeometry>
        </mxCell>
        <mxCell id="zEM9ajk-SXAkSVKI_JSx-1" value="" style="endArrow=none;html=1;rounded=0;entryX=0.467;entryY=1.1;entryDx=0;entryDy=0;entryPerimeter=0;startArrow=classic;startFill=1;endFill=0;" edge="1" parent="xb3okMgiT83-ZsKsdgay-1">
          <mxGeometry width="50" height="50" relative="1" as="geometry">
            <mxPoint x="210" y="280" as="sourcePoint" />
            <mxPoint x="210" y="210.00000000000006" as="targetPoint" />
          </mxGeometry>
        </mxCell>
        <mxCell id="zEM9ajk-SXAkSVKI_JSx-2" value="Read from&amp;nbsp;&lt;div&gt;address y&lt;/div&gt;" style="text;html=1;align=center;verticalAlign=middle;whiteSpace=wrap;rounded=0;fontFamily=Architects Daughter;fontSource=https%3A%2F%2Ffonts.googleapis.com%2Fcss%3Ffamily%3DArchitects%2BDaughter;" vertex="1" parent="xb3okMgiT83-ZsKsdgay-1">
          <mxGeometry x="320" y="230" width="80" height="30" as="geometry" />
        </mxCell>
        <mxCell id="zEM9ajk-SXAkSVKI_JSx-3" value="64 bytes&lt;div&gt;(2 bytes per pin)&lt;/div&gt;" style="text;html=1;align=center;verticalAlign=middle;whiteSpace=wrap;rounded=0;fontFamily=Architects Daughter;fontSource=https%3A%2F%2Ffonts.googleapis.com%2Fcss%3Ffamily%3DArchitects%2BDaughter;" vertex="1" parent="xb3okMgiT83-ZsKsdgay-1">
          <mxGeometry x="420" y="230" width="110" height="30" as="geometry" />
        </mxCell>
        <mxCell id="zEM9ajk-SXAkSVKI_JSx-4" value="" style="endArrow=classic;html=1;rounded=0;entryX=0.467;entryY=1.1;entryDx=0;entryDy=0;entryPerimeter=0;" edge="1" parent="xb3okMgiT83-ZsKsdgay-1">
          <mxGeometry width="50" height="50" relative="1" as="geometry">
            <mxPoint x="400" y="280" as="sourcePoint" />
            <mxPoint x="400" y="210.00000000000006" as="targetPoint" />
          </mxGeometry>
        </mxCell>
        <mxCell id="zEM9ajk-SXAkSVKI_JSx-5" value="" style="endArrow=none;html=1;rounded=0;entryX=0.467;entryY=1.1;entryDx=0;entryDy=0;entryPerimeter=0;startArrow=classic;startFill=1;endFill=0;" edge="1" parent="xb3okMgiT83-ZsKsdgay-1">
          <mxGeometry width="50" height="50" relative="1" as="geometry">
            <mxPoint x="420" y="280" as="sourcePoint" />
            <mxPoint x="420" y="210.00000000000006" as="targetPoint" />
          </mxGeometry>
        </mxCell>
      </root>
    </mxGraphModel>
  </diagram>
  <diagram name="fragmentation-part1" id="s2ACfB1Dd6EAdY9a51Hj">
    <mxGraphModel dx="447" dy="467" grid="1" gridSize="10" guides="1" tooltips="1" connect="1" arrows="1" fold="1" page="1" pageScale="1" pageWidth="1100" pageHeight="850" math="0" shadow="0">
      <root>
        <mxCell id="kDkqgQFUXPOIFCzQp92d-0" />
        <mxCell id="kDkqgQFUXPOIFCzQp92d-1" parent="kDkqgQFUXPOIFCzQp92d-0" />
        <mxCell id="kDkqgQFUXPOIFCzQp92d-2" value="" style="rounded=0;whiteSpace=wrap;html=1;fillColor=#ffe6cc;strokeColor=#d79b00;shadow=1;" vertex="1" parent="kDkqgQFUXPOIFCzQp92d-1">
          <mxGeometry x="70" y="55" width="440" height="305" as="geometry" />
        </mxCell>
        <mxCell id="kDkqgQFUXPOIFCzQp92d-3" value="" style="rounded=0;whiteSpace=wrap;html=1;fillColor=#d5e8d4;strokeColor=#82b366;" vertex="1" parent="kDkqgQFUXPOIFCzQp92d-1">
          <mxGeometry x="160" y="70" width="150" height="270" as="geometry" />
        </mxCell>
        <mxCell id="kDkqgQFUXPOIFCzQp92d-4" value="0x1000000" style="text;html=1;align=right;verticalAlign=middle;whiteSpace=wrap;rounded=0;fontFamily=Courier New;fontStyle=1" vertex="1" parent="kDkqgQFUXPOIFCzQp92d-1">
          <mxGeometry x="70" y="70" width="90" height="30" as="geometry" />
        </mxCell>
        <mxCell id="kDkqgQFUXPOIFCzQp92d-5" value="0x0" style="text;html=1;align=right;verticalAlign=middle;whiteSpace=wrap;rounded=0;fontFamily=Courier New;fontStyle=1" vertex="1" parent="kDkqgQFUXPOIFCzQp92d-1">
          <mxGeometry x="70" y="310" width="90" height="30" as="geometry" />
        </mxCell>
        <mxCell id="kDkqgQFUXPOIFCzQp92d-6" value="0x100000" style="text;html=1;align=right;verticalAlign=middle;whiteSpace=wrap;rounded=0;fontFamily=Courier New;fontStyle=1" vertex="1" parent="kDkqgQFUXPOIFCzQp92d-1">
          <mxGeometry x="70" y="250" width="90" height="30" as="geometry" />
        </mxCell>
        <mxCell id="kDkqgQFUXPOIFCzQp92d-7" value="0x800000" style="text;html=1;align=right;verticalAlign=middle;whiteSpace=wrap;rounded=0;fontFamily=Courier New;fontStyle=1" vertex="1" parent="kDkqgQFUXPOIFCzQp92d-1">
          <mxGeometry x="70" y="130" width="90" height="30" as="geometry" />
        </mxCell>
        <mxCell id="kDkqgQFUXPOIFCzQp92d-8" value="Process 2" style="rounded=0;whiteSpace=wrap;html=1;fillColor=#f5f5f5;strokeColor=#666666;fontFamily=Architects Daughter;fontSource=https%3A%2F%2Ffonts.googleapis.com%2Fcss%3Ffamily%3DArchitects%2BDaughter;fontColor=#333333;" vertex="1" parent="kDkqgQFUXPOIFCzQp92d-1">
          <mxGeometry x="170" y="140" width="130" height="120" as="geometry" />
        </mxCell>
        <mxCell id="kDkqgQFUXPOIFCzQp92d-9" value="Process 3" style="rounded=0;whiteSpace=wrap;html=1;fillColor=#f5f5f5;strokeColor=#666666;fontFamily=Architects Daughter;fontSource=https%3A%2F%2Ffonts.googleapis.com%2Fcss%3Ffamily%3DArchitects%2BDaughter;fontColor=#333333;" vertex="1" parent="kDkqgQFUXPOIFCzQp92d-1">
          <mxGeometry x="170" y="80" width="130" height="60" as="geometry" />
        </mxCell>
        <mxCell id="kDkqgQFUXPOIFCzQp92d-10" value="Process 1" style="rounded=0;whiteSpace=wrap;html=1;fillColor=#f5f5f5;strokeColor=#666666;fontFamily=Architects Daughter;fontSource=https%3A%2F%2Ffonts.googleapis.com%2Fcss%3Ffamily%3DArchitects%2BDaughter;fontColor=#333333;" vertex="1" parent="kDkqgQFUXPOIFCzQp92d-1">
          <mxGeometry x="170" y="260" width="130" height="70" as="geometry" />
        </mxCell>
      </root>
    </mxGraphModel>
  </diagram>
  <diagram name="fragmentation-part2" id="h4HiQVotFcUzg-8B1czx">
    <mxGraphModel dx="447" dy="467" grid="1" gridSize="10" guides="1" tooltips="1" connect="1" arrows="1" fold="1" page="1" pageScale="1" pageWidth="1100" pageHeight="850" math="0" shadow="0">
      <root>
        <mxCell id="NgxT8pNYw6EJSiTU9c0v-0" />
        <mxCell id="NgxT8pNYw6EJSiTU9c0v-1" parent="NgxT8pNYw6EJSiTU9c0v-0" />
        <mxCell id="NgxT8pNYw6EJSiTU9c0v-2" value="" style="rounded=0;whiteSpace=wrap;html=1;fillColor=#ffe6cc;strokeColor=#d79b00;shadow=1;" vertex="1" parent="NgxT8pNYw6EJSiTU9c0v-1">
          <mxGeometry x="70" y="55" width="440" height="305" as="geometry" />
        </mxCell>
        <mxCell id="NgxT8pNYw6EJSiTU9c0v-3" value="" style="rounded=0;whiteSpace=wrap;html=1;fillColor=#d5e8d4;strokeColor=#82b366;" vertex="1" parent="NgxT8pNYw6EJSiTU9c0v-1">
          <mxGeometry x="160" y="70" width="150" height="270" as="geometry" />
        </mxCell>
        <mxCell id="NgxT8pNYw6EJSiTU9c0v-4" value="0x1000000" style="text;html=1;align=right;verticalAlign=middle;whiteSpace=wrap;rounded=0;fontFamily=Courier New;fontStyle=1" vertex="1" parent="NgxT8pNYw6EJSiTU9c0v-1">
          <mxGeometry x="70" y="70" width="90" height="30" as="geometry" />
        </mxCell>
        <mxCell id="NgxT8pNYw6EJSiTU9c0v-5" value="0x0" style="text;html=1;align=right;verticalAlign=middle;whiteSpace=wrap;rounded=0;fontFamily=Courier New;fontStyle=1" vertex="1" parent="NgxT8pNYw6EJSiTU9c0v-1">
          <mxGeometry x="70" y="310" width="90" height="30" as="geometry" />
        </mxCell>
        <mxCell id="NgxT8pNYw6EJSiTU9c0v-6" value="0x100000" style="text;html=1;align=right;verticalAlign=middle;whiteSpace=wrap;rounded=0;fontFamily=Courier New;fontStyle=1" vertex="1" parent="NgxT8pNYw6EJSiTU9c0v-1">
          <mxGeometry x="70" y="250" width="90" height="30" as="geometry" />
        </mxCell>
        <mxCell id="NgxT8pNYw6EJSiTU9c0v-7" value="0x800000" style="text;html=1;align=right;verticalAlign=middle;whiteSpace=wrap;rounded=0;fontFamily=Courier New;fontStyle=1" vertex="1" parent="NgxT8pNYw6EJSiTU9c0v-1">
          <mxGeometry x="70" y="130" width="90" height="30" as="geometry" />
        </mxCell>
        <mxCell id="NgxT8pNYw6EJSiTU9c0v-8" value="Process 2" style="rounded=0;whiteSpace=wrap;html=1;fillColor=#f5f5f5;strokeColor=#666666;fontFamily=Architects Daughter;fontSource=https%3A%2F%2Ffonts.googleapis.com%2Fcss%3Ffamily%3DArchitects%2BDaughter;fontColor=#333333;" vertex="1" parent="NgxT8pNYw6EJSiTU9c0v-1">
          <mxGeometry x="170" y="140" width="130" height="120" as="geometry" />
        </mxCell>
        <mxCell id="NgxT8pNYw6EJSiTU9c0v-9" value="Process 3" style="rounded=0;whiteSpace=wrap;html=1;fillColor=#f5f5f5;fontColor=#333333;strokeColor=#666666;fontFamily=Architects Daughter;fontSource=https%3A%2F%2Ffonts.googleapis.com%2Fcss%3Ffamily%3DArchitects%2BDaughter;opacity=40;textOpacity=40;" vertex="1" parent="NgxT8pNYw6EJSiTU9c0v-1">
          <mxGeometry x="170" y="80" width="130" height="60" as="geometry" />
        </mxCell>
        <mxCell id="NgxT8pNYw6EJSiTU9c0v-10" value="Process 1" style="rounded=0;whiteSpace=wrap;html=1;fillColor=#f5f5f5;fontColor=#333333;strokeColor=#666666;fontFamily=Architects Daughter;fontSource=https%3A%2F%2Ffonts.googleapis.com%2Fcss%3Ffamily%3DArchitects%2BDaughter;opacity=40;textOpacity=40;" vertex="1" parent="NgxT8pNYw6EJSiTU9c0v-1">
          <mxGeometry x="170" y="260" width="130" height="70" as="geometry" />
        </mxCell>
        <mxCell id="IJLqz1HInpDhh7v2-dP4-0" value="Process 3 and 1 terminate!" style="text;html=1;align=center;verticalAlign=middle;whiteSpace=wrap;rounded=0;fontFamily=Architects Daughter;fontSource=https%3A%2F%2Ffonts.googleapis.com%2Fcss%3Ffamily%3DArchitects%2BDaughter;" vertex="1" parent="NgxT8pNYw6EJSiTU9c0v-1">
          <mxGeometry x="320" y="70" width="170" height="30" as="geometry" />
        </mxCell>
      </root>
    </mxGraphModel>
  </diagram>
  <diagram name="fragmentation-part3" id="KvyrrnD02Azc0GlUcofI">
    <mxGraphModel dx="447" dy="467" grid="1" gridSize="10" guides="1" tooltips="1" connect="1" arrows="1" fold="1" page="1" pageScale="1" pageWidth="1100" pageHeight="850" math="0" shadow="0">
      <root>
        <mxCell id="vds9Ekf9IDvYBIhwhPW2-0" />
        <mxCell id="vds9Ekf9IDvYBIhwhPW2-1" parent="vds9Ekf9IDvYBIhwhPW2-0" />
        <mxCell id="vds9Ekf9IDvYBIhwhPW2-2" value="" style="rounded=0;whiteSpace=wrap;html=1;fillColor=#ffe6cc;strokeColor=#d79b00;shadow=1;" vertex="1" parent="vds9Ekf9IDvYBIhwhPW2-1">
          <mxGeometry x="70" y="55" width="440" height="305" as="geometry" />
        </mxCell>
        <mxCell id="vds9Ekf9IDvYBIhwhPW2-3" value="" style="rounded=0;whiteSpace=wrap;html=1;fillColor=#d5e8d4;strokeColor=#82b366;" vertex="1" parent="vds9Ekf9IDvYBIhwhPW2-1">
          <mxGeometry x="160" y="70" width="150" height="270" as="geometry" />
        </mxCell>
        <mxCell id="vds9Ekf9IDvYBIhwhPW2-4" value="0x1000000" style="text;html=1;align=right;verticalAlign=middle;whiteSpace=wrap;rounded=0;fontFamily=Courier New;fontStyle=1" vertex="1" parent="vds9Ekf9IDvYBIhwhPW2-1">
          <mxGeometry x="70" y="70" width="90" height="30" as="geometry" />
        </mxCell>
        <mxCell id="vds9Ekf9IDvYBIhwhPW2-5" value="0x0" style="text;html=1;align=right;verticalAlign=middle;whiteSpace=wrap;rounded=0;fontFamily=Courier New;fontStyle=1" vertex="1" parent="vds9Ekf9IDvYBIhwhPW2-1">
          <mxGeometry x="70" y="310" width="90" height="30" as="geometry" />
        </mxCell>
        <mxCell id="vds9Ekf9IDvYBIhwhPW2-6" value="0x100000" style="text;html=1;align=right;verticalAlign=middle;whiteSpace=wrap;rounded=0;fontFamily=Courier New;fontStyle=1" vertex="1" parent="vds9Ekf9IDvYBIhwhPW2-1">
          <mxGeometry x="70" y="250" width="90" height="30" as="geometry" />
        </mxCell>
        <mxCell id="vds9Ekf9IDvYBIhwhPW2-7" value="0x800000" style="text;html=1;align=right;verticalAlign=middle;whiteSpace=wrap;rounded=0;fontFamily=Courier New;fontStyle=1" vertex="1" parent="vds9Ekf9IDvYBIhwhPW2-1">
          <mxGeometry x="70" y="130" width="90" height="30" as="geometry" />
        </mxCell>
        <mxCell id="vds9Ekf9IDvYBIhwhPW2-8" value="Process 2" style="rounded=0;whiteSpace=wrap;html=1;fillColor=#f5f5f5;strokeColor=#666666;fontFamily=Architects Daughter;fontSource=https%3A%2F%2Ffonts.googleapis.com%2Fcss%3Ffamily%3DArchitects%2BDaughter;fontColor=#333333;" vertex="1" parent="vds9Ekf9IDvYBIhwhPW2-1">
          <mxGeometry x="170" y="140" width="130" height="120" as="geometry" />
        </mxCell>
        <mxCell id="vds9Ekf9IDvYBIhwhPW2-9" value="Process 3" style="rounded=0;whiteSpace=wrap;html=1;fillColor=#f5f5f5;fontColor=#333333;strokeColor=#666666;fontFamily=Architects Daughter;fontSource=https%3A%2F%2Ffonts.googleapis.com%2Fcss%3Ffamily%3DArchitects%2BDaughter;opacity=40;textOpacity=40;" vertex="1" parent="vds9Ekf9IDvYBIhwhPW2-1">
          <mxGeometry x="170" y="80" width="130" height="60" as="geometry" />
        </mxCell>
        <mxCell id="vds9Ekf9IDvYBIhwhPW2-10" value="Process 1" style="rounded=0;whiteSpace=wrap;html=1;fillColor=#f5f5f5;fontColor=#333333;strokeColor=#666666;fontFamily=Architects Daughter;fontSource=https%3A%2F%2Ffonts.googleapis.com%2Fcss%3Ffamily%3DArchitects%2BDaughter;opacity=40;textOpacity=40;" vertex="1" parent="vds9Ekf9IDvYBIhwhPW2-1">
          <mxGeometry x="170" y="260" width="130" height="70" as="geometry" />
        </mxCell>
        <mxCell id="vds9Ekf9IDvYBIhwhPW2-11" value="There is free space available, but it&#39;s not contiguous, so Process 4 can&#39;t be started" style="text;html=1;align=center;verticalAlign=middle;whiteSpace=wrap;rounded=0;fontFamily=Architects Daughter;fontSource=https%3A%2F%2Ffonts.googleapis.com%2Fcss%3Ffamily%3DArchitects%2BDaughter;" vertex="1" parent="vds9Ekf9IDvYBIhwhPW2-1">
          <mxGeometry x="320" y="70" width="170" height="50" as="geometry" />
        </mxCell>
        <mxCell id="rIfEcTtwcLfCtJh0BXau-0" style="rounded=0;orthogonalLoop=1;jettySize=auto;html=1;exitX=0;exitY=0.25;exitDx=0;exitDy=0;entryX=1;entryY=0.5;entryDx=0;entryDy=0;" edge="1" parent="vds9Ekf9IDvYBIhwhPW2-1" source="YbtivXuWJ3nbuAtnH8XO-0" target="vds9Ekf9IDvYBIhwhPW2-9">
          <mxGeometry relative="1" as="geometry" />
        </mxCell>
        <mxCell id="rIfEcTtwcLfCtJh0BXau-1" style="rounded=0;orthogonalLoop=1;jettySize=auto;html=1;exitX=0;exitY=0.75;exitDx=0;exitDy=0;entryX=1;entryY=0.5;entryDx=0;entryDy=0;" edge="1" parent="vds9Ekf9IDvYBIhwhPW2-1" source="YbtivXuWJ3nbuAtnH8XO-0" target="vds9Ekf9IDvYBIhwhPW2-10">
          <mxGeometry relative="1" as="geometry" />
        </mxCell>
        <mxCell id="YbtivXuWJ3nbuAtnH8XO-0" value="Process 4" style="rounded=0;whiteSpace=wrap;html=1;fillColor=#f8cecc;strokeColor=#b85450;fontFamily=Architects Daughter;fontSource=https%3A%2F%2Ffonts.googleapis.com%2Fcss%3Ffamily%3DArchitects%2BDaughter;" vertex="1" parent="vds9Ekf9IDvYBIhwhPW2-1">
          <mxGeometry x="350" y="150" width="130" height="100" as="geometry" />
        </mxCell>
        <mxCell id="rIfEcTtwcLfCtJh0BXau-2" value="" style="shape=umlDestroy;whiteSpace=wrap;html=1;strokeWidth=3;targetShapes=umlLifeline;strokeColor=#FF0000;" vertex="1" parent="vds9Ekf9IDvYBIhwhPW2-1">
          <mxGeometry x="320" y="140" width="10" height="10" as="geometry" />
        </mxCell>
        <mxCell id="rIfEcTtwcLfCtJh0BXau-3" value="" style="shape=umlDestroy;whiteSpace=wrap;html=1;strokeWidth=3;targetShapes=umlLifeline;strokeColor=#FF0000;" vertex="1" parent="vds9Ekf9IDvYBIhwhPW2-1">
          <mxGeometry x="320" y="250" width="10" height="10" as="geometry" />
        </mxCell>
      </root>
    </mxGraphModel>
  </diagram>
</mxfile>
